<?xml version='1.0' encoding='utf-8'?>
<svg xmlns='http://www.w3.org/2000/svg' version='1.1' width='1000' height='590'>
<defs><symbol id='fire'><g transform='scale(40, 40)'><g
     transform="matrix(0.00220524,0,0,0.00220663,-0.03301685,-0.03549806)"
     id="g3381"><g
       id="g3"><linearGradient
         id="SVGID_1_"
         y2="16.455999"
         gradientUnits="userSpaceOnUse"
         x2="230.92999"
         y1="16.455999"
         x1="229.97"><stop
           style="stop-color:#6D0000"
           offset="0"
           id="stop6" /><stop
           style="stop-color:#ED1C24"
           offset="1"
           id="stop8" /></linearGradient><path
         style="fill:url(#SVGID_1_)"
         d="m 230.23,16.52 c 0.251,0.074 0.481,0.182 0.703,0.306 -0.321,-0.246 -0.64,-0.494 -0.962,-0.739 l 0.26,0.433 z"
         id="path10" /><linearGradient
         id="SVGID_2_"
         y2="17.204"
         gradientUnits="userSpaceOnUse"
         x2="231.92"
         y1="17.204"
         x1="230.92999"><stop
           style="stop-color:#6D0000"
           offset="0"
           id="stop13" /><stop
           style="stop-color:#ED1C24"
           offset="1"
           id="stop15" /></linearGradient><path
         style="fill:url(#SVGID_2_)"
         d="m 230.93,16.826 c 0.329,0.252 0.658,0.504 0.985,0.757 -0.3,-0.299 -0.63,-0.556 -0.99,-0.757 z"
         id="path17" /><linearGradient
         id="SVGID_3_"
         y2="243.42"
         gradientUnits="userSpaceOnUse"
         x2="468.44"
         y1="243.42"
         x1="14.975"><stop
           style="stop-color:#6D0000"
           offset="0"
           id="stop20" /><stop
           style="stop-color:#ED1C24"
           offset="1"
           id="stop22" /></linearGradient><path
         style="fill:url(#SVGID_3_)"
         d="m 445.06,397.39 c -15.36,-0.273 -28.584,-7.196 -40.049,-16.6 -9.835,-6.95 -15.792,-17.681 -15.562,-29.751 0.822,-3.735 0.521,-7.889 3.288,-10.715 -2.205,-8.897 -3.043,-17.811 -2.047,-27.242 0.908,-4.34 2.047,-8.091 4.398,-11.682 2.091,-2.971 5.234,-3.259 8.45,-3.808 -4.513,-2.754 -7.283,-7.656 -7.341,-12.748 1.804,-8.32 9.981,-13.772 15.445,-19.844 11.279,-9.777 21.113,-20.493 24.546,-34.611 -2.625,2.307 -4.615,5.566 -7.744,7.369 -3.117,3.347 -7.759,4.659 -12.604,4.946 -3.995,-0.546 -8.683,-3.128 -9.749,-7.368 -1.976,-2.785 -1.587,-6.605 -1.212,-10.082 2.075,-5.537 5.004,-11.262 9.461,-15.459 10.757,-12.345 29.001,-12.589 43.565,-8.235 -14.781,-9.446 -35.662,-8.912 -51.527,-16.397 -6.057,-2.076 -11.682,-5.58 -16.238,-10.715 -4.297,-6.403 -5.897,-14.032 -6.316,-22.18 1.73,-14.465 9.504,-27.516 14.811,-41.159 9.577,-19.873 12.056,-43.827 10.758,-65.631 -2.118,18.272 -9.012,35.059 -21.27,48.932 l -10.281,8.581 c -9.434,7.744 -20.928,12.936 -32.984,13.555 -10.786,-0.836 -21.675,-3.273 -30.486,-9.735 -10.095,-7.874 -5.306,-22.02 -3.374,-32.39 -3.648,8.004 -10.441,18.171 -20.104,19.296 -6.345,1.831 -10.988,-4.572 -14.58,-7.773 l 0.073,-0.072 c -5.58,-6.994 -8.87,-14.782 -12.518,-22.728 -3.923,-10.239 -8.855,-19.786 -15.042,-28.901 -4.841,-6.85 -10.759,-11.903 -16.915,-16.66 1.351,1.34 2.261,3.459 3.892,4.562 6.116,9.201 7.904,20.046 7.082,31.525 -2.004,11.984 -8.191,23.088 -18.2,31.583 -5.58,3.446 -11.204,9.186 -18.357,8.234 -4.658,0.13 -8.091,-3.576 -11.105,-7.196 l -0.418,0.101 c -3.375,-5.999 -6.144,-12.257 -7.312,-18.948 -1.226,-4.226 -0.937,-8.827 -2.74,-12.634 0.477,5.855 0.606,11.551 -0.101,17.407 -0.332,9.763 -4.211,20.925 -14.624,24.516 -10.67,3.158 -19.468,-1.946 -26.997,-8.495 0.159,-0.865 -0.764,-0.432 -1.11,-0.922 -2.48,-2.611 -5.986,-4.024 -8.811,-6.447 -1.01,0.346 -0.938,-1.615 -1.789,-0.418 l -0.346,-1.009 c -0.086,0.086 -0.246,0.245 -0.419,0.245 -0.173,-0.331 -0.677,-0.504 -0.258,-0.75 l -1.616,-0.765 c -1.975,-1.917 -4.96,-3.519 -7.687,-4.514 -6.676,-5.018 -15.185,-7.312 -22.67,-9.792 0,0.174 0.087,0.26 -0.086,0.433 -0.506,0.173 -0.606,-0.417 -0.866,-0.677 -18.546,-5.264 -40.798,-5.727 -59.689,-0.707 -1.688,0.52 -2.958,1.644 -4.816,1.832 -4.226,2.077 -8.812,3.129 -12.332,6.734 15.071,-5.235 32.853,-9.143 49.192,-4.37 4.947,1.816 9.965,2.884 14.581,5.394 7.254,4.745 16.05,11.046 21.56,18.979 6.735,10.44 12.099,21.604 14.176,34.063 1.631,10.86 1.919,22.916 -0.619,33.386 -1.976,14.522 -16.585,23.405 -28.872,27.357 1.644,1.919 3.432,2.684 4.729,4.789 6.533,8.437 2.134,20.45 -1.773,28.712 -3.952,4.542 -7.802,9.173 -13.051,11.927 -19.511,10.456 -43.178,11.437 -65.488,14.796 22.829,-0.635 47.533,-1.803 66.67,11.09 4.961,3.188 10.009,7.284 13.109,12.187 2.51,5.493 3.173,12.706 -1.283,17.407 -7.528,3.734 -16.397,-0.261 -22.035,-5.293 1.398,4.903 4.585,9.043 8.68,12.387 1.731,2.02 4.789,1.832 5.985,3.852 8.335,2.654 16.383,8.683 22.974,14.969 5.35,7.097 8.653,15.389 7.125,24.301 0.13,5.364 -2.365,10.312 -5.135,14.666 -10.052,14.854 -18.56,29.377 -22.814,46.566 -0.418,0.765 -0.073,1.774 -0.923,2.309 -0.058,1.601 -0.13,3.733 -1.039,5.017 0.52,1.517 -0.317,2.728 -0.49,4.415 -1.284,7.153 -0.361,14.94 0.721,22.236 0.62,2.799 0.39,3.908 1.514,6.69 0.519,1.358 0.044,3.059 1.053,3.896 0.792,2.797 1.759,5.581 2.221,8.393 1.182,0.663 0.692,2.523 2.062,3.029 -0.158,2.204 2.307,3.805 3.013,5.146 -2.004,-5.321 -2.913,-11.436 -4.167,-17.52 -0.116,-12.231 1.471,-24.302 8.004,-34.555 1.888,-6.044 7.975,-10.354 11.739,-15.057 12.214,-10.211 26.434,-15.285 42.038,-16.786 10.514,-1.443 19.469,2.451 27.328,8.335 11.451,7.86 14.219,21.504 13.413,34.844 l 2.682,-4.774 c 5.437,-7.786 12.734,-16.269 22.858,-14.061 4.024,2.421 6.865,6.547 9.013,10.354 8.322,18.431 10.211,38.434 12.88,58.71 -0.795,-11.19 -0.045,-22.411 0.519,-33.963 1.441,-8.682 1.441,-18.086 5.781,-25.438 2.353,-2.409 3.938,-6.75 7.831,-7.108 -0.519,-1.371 -0.2,-3.232 0.476,-4.604 2.006,-3.59 6.216,-5.651 10.124,-6.546 1.947,0.231 4.312,-0.303 6.115,0.793 1.846,-0.706 3.071,0.981 4.86,1.227 4.341,2.25 9.635,5.25 12.734,8.954 0.027,-5.002 3.129,-8.854 5.394,-12.689 8.062,-9.418 20.507,-12.331 31.973,-13.211 8.22,-1.513 16.136,1.197 23.967,3.333 17.047,7.483 31.944,20.751 51.325,22.61 2.38,-0.546 4.441,1.833 6.966,1.125 8.682,0.938 14.191,0.133 22.585,-0.892 2.278,-0.795 4.916,-0.217 6.777,-1.256 l 0,0.173 c 4.24,-0.389 8.653,-1.616 12.791,-2.928 5.324,-2.178 12.102,-4.269 16.052,-7.629 -6.72,4.48 -15.3,4.99 -23.36,6.17 z M 403.04,197.8 c -0.174,0.159 -0.289,0.39 -0.448,0.562 -0.216,0.216 -0.461,0.361 -0.662,0.592 l 1.11,-1.15 z M 136.37,101.89 c 1.586,1.024 2.885,1.875 2.9,1.875 -1.198,-0.245 -2.221,-0.821 -3.303,-1.312 0.2,-0.27 0.2,-0.28 0.4,-0.56 z m -26.65,81.01 c 0,0 -0.865,-0.952 -0.951,-1.066 -0.203,-0.261 -0.26,-0.592 -0.461,-0.836 l 1.41,1.91 z m 265.77,154.74 c -1.152,3.201 -1.614,6.145 -1.889,8.162 l -0.258,1.731 -0.34,2.11 c 0,0 -0.043,1.759 -0.043,2.091 0,8.566 2.134,16.758 6.086,24.07 -0.75,-0.434 -1.456,-0.81 -2.235,-1.255 l -18.229,-9.62 -0.577,-0.332 -4.196,-1.167 c -7.773,-2.191 -17.45,-4.874 -28.31,-3 -18.402,1.614 -31.957,7.558 -41.36,18.127 -0.446,-0.143 -0.533,-0.173 -1.038,-0.331 -0.145,-0.015 -1.904,-0.158 -2.769,-0.23 -2.618,-0.634 -10.508,-2.542 -11.894,-2.786 l -2.73,-0.229 -2.48,0.562 c -9.403,2.135 -16.814,7.325 -20.854,14.609 l -0.199,0.345 -0.176,0.362 c -0.259,0.532 -0.171,1.125 -0.387,1.671 -1.025,0.98 -1.977,1.903 -2.698,2.812 -2.566,-3.302 -5.797,-6.646 -10.108,-9.242 l -2.351,-1.427 -2.669,-0.577 c -7.354,-1.602 -13.744,-0.521 -19.166,1.859 -3.878,-6.993 -8.912,-11.812 -13.642,-15.114 -12.489,-9.258 -25.57,-13.079 -38.895,-11.319 -11.624,1.14 -22.194,4.21 -31.87,8.768 1.542,-2.437 3.056,-4.846 4.772,-7.384 3.072,-4.816 6.851,-12.085 7.456,-20.823 l 0,0.129 c 0.015,-0.072 0,-0.146 0.015,-0.216 0.058,-0.736 0.231,-1.399 0.231,-2.15 0,-0.144 0,-0.288 -0.014,-0.417 0.158,-1.472 0.389,-2.928 0.389,-4.413 0,-10.153 -3.678,-20.334 -10.803,-29.81 l -0.807,-1.066 -0.981,-0.938 c -3.706,-3.548 -7.412,-6.202 -11.12,-8.869 2.309,-4.27 3.896,-8.897 3.896,-13.975 0,-5.033 -1.154,-10.282 -3.506,-15.416 l -0.446,-1.009 -0.606,-0.952 c -3.908,-6.173 -9.922,-11.899 -17.565,-16.845 5.985,-3.923 10.686,-8.74 14.305,-12.908 l 2.006,-2.336 0.979,-2.033 c 4.442,-9.389 6.663,-17.926 6.663,-25.569 0,-2.928 -0.621,-5.61 -1.284,-8.278 12.099,-8.062 20.117,-19.021 21.906,-31.64 1.456,-6.605 2.09,-13.311 2.09,-19.612 0,-7.053 -0.677,-13.586 -1.484,-18.907 -0.837,-5.062 -2.278,-10.065 -4.067,-15.1 1.414,-1.975 1.587,-2.234 3.158,-4.47 6.98,5.624 20.912,14.696 39.314,9.258 l 0.691,-0.23 c 5.278,-1.817 9.62,-5.177 13.455,-9.128 3.846,3.254 8.976,6.293 15.793,6.689 -0.164,-0.012 -0.325,-0.018 -0.493,-0.042 0,0 0.793,0.044 1.528,0.088 -0.351,-0.006 -0.693,-0.026 -1.036,-0.045 0.414,0.03 0.821,0.042 1.224,0.074 0.173,0 0.304,0.029 0.447,0.029 10.889,0.605 19.124,-5.148 24.156,-8.726 l 2.899,-1.99 1.326,-0.88 0.634,-0.548 c 7.109,-6.028 12.648,-13.166 16.774,-21.026 3.012,6.432 6.286,12.936 11.419,19.354 l 1.099,1.399 2.089,2.033 c 4.082,4.067 13.528,13.209 27.156,10.196 0.647,-0.087 1.255,-0.404 1.903,-0.534 1.976,3.866 4.674,7.586 8.868,10.859 10.125,7.428 22.859,11.638 38.953,12.879 l 1.054,0.071 1.053,-0.057 c 10.035,-0.506 19.902,-3.548 29.245,-8.552 -3.315,7.888 -6.359,16.498 -7.484,25.857 l -0.172,1.399 0.071,1.414 c 0.635,12.345 3.605,22.324 9.1,30.501 l 0.62,0.922 0.736,0.837 c 6.1,6.893 13.757,11.926 22.642,15.099 0.1,0.043 0.216,0.073 0.316,0.116 -0.015,0 -0.015,0.015 -0.015,0.029 0.086,0.03 0.174,0.101 0.274,0.129 0,0 -0.216,-0.087 -0.288,-0.115 -4.514,4.989 -8.351,10.989 -11.276,18.819 l -0.737,1.948 -0.217,2.047 c -0.187,1.615 -0.417,3.706 -0.417,6.072 0,3.316 0.895,7.167 2.566,11.045 1.716,5.48 5.062,9.807 9.273,12.865 -0.043,0.043 -4.428,4.413 -4.428,4.413 -5.494,5.264 -13.037,12.46 -15.415,23.535 l -0.392,1.773 0.029,1.816 c 0.015,2.785 0.447,5.51 1.196,8.15 -3.704,5.939 -5.363,11.723 -6.372,16.627 l -0.158,0.777 -0.089,0.794 c -0.345,3.217 -0.519,6.433 -0.519,9.648 0.01,5.49 0.69,11.06 1.71,16.67 z m 19.07,55.9 c 0.231,0.187 0.463,0.302 0.692,0.49 0.087,0.058 0.145,0.159 0.245,0.216 l -0.94,-0.71 z"
         id="path24" /></g><g
       id="g26"><radialGradient
         id="SVGID_4_"
         gradientUnits="userSpaceOnUse"
         cy="16.455999"
         cx="230.45"
         r="0.42860001"><stop
           style="stop-color:#FFF200"
           offset="0"
           id="stop29" /><stop
           style="stop-color:#F26822"
           offset="1"
           id="stop31" /></radialGradient><path
         style="fill:url(#SVGID_4_)"
         d="m 230.23,16.52 c 0.251,0.074 0.481,0.182 0.703,0.306 -0.321,-0.246 -0.64,-0.494 -0.962,-0.739 l 0.26,0.433 z"
         id="path33" /><radialGradient
         id="SVGID_5_"
         gradientUnits="userSpaceOnUse"
         cy="17.204"
         cx="231.42"
         r="0.43979999"><stop
           style="stop-color:#FFF200"
           offset="0"
           id="stop36" /><stop
           style="stop-color:#F26822"
           offset="1"
           id="stop38" /></radialGradient><path
         style="fill:url(#SVGID_5_)"
         d="m 230.93,16.826 c 0.329,0.252 0.658,0.504 0.985,0.757 -0.3,-0.299 -0.63,-0.556 -0.99,-0.757 z"
         id="path40" /><radialGradient
         id="SVGID_6_"
         gradientUnits="userSpaceOnUse"
         cy="236.07001"
         cx="247.08"
         r="157.62"><stop
           style="stop-color:#FFF200"
           offset="0"
           id="stop43" /><stop
           style="stop-color:#F26822"
           offset="1"
           id="stop45" /></radialGradient><path
         style="fill:url(#SVGID_6_)"
         d="m 403.04,197.8 c -0.174,0.159 -0.289,0.39 -0.448,0.562 -0.216,0.216 -0.461,0.361 -0.662,0.592 l 1.11,-1.15 z M 136.37,101.89 c 1.586,1.024 2.885,1.875 2.9,1.875 -1.198,-0.245 -2.221,-0.821 -3.303,-1.312 0.2,-0.27 0.2,-0.28 0.4,-0.56 z m -26.65,81.01 c 0,0 -0.865,-0.952 -0.951,-1.066 -0.203,-0.261 -0.26,-0.592 -0.461,-0.836 l 1.41,1.91 z m 265.77,154.74 c -1.152,3.201 -1.614,6.145 -1.889,8.162 l -0.258,1.731 -0.34,2.11 c 0,0 -0.043,1.759 -0.043,2.091 0,8.566 2.134,16.758 6.086,24.07 -0.75,-0.434 -1.456,-0.81 -2.235,-1.255 l -18.229,-9.62 -0.577,-0.332 -4.196,-1.167 c -7.773,-2.191 -17.45,-4.874 -28.31,-3 -18.402,1.614 -31.957,7.558 -41.36,18.127 -0.446,-0.143 -0.533,-0.173 -1.038,-0.331 -0.145,-0.015 -1.904,-0.158 -2.769,-0.23 -2.618,-0.634 -10.508,-2.542 -11.894,-2.786 l -2.73,-0.229 -2.48,0.562 c -9.403,2.135 -16.814,7.325 -20.854,14.609 l -0.199,0.345 -0.176,0.362 c -0.259,0.532 -0.171,1.125 -0.387,1.671 -1.025,0.98 -1.977,1.903 -2.698,2.812 -2.566,-3.302 -5.797,-6.646 -10.108,-9.242 l -2.351,-1.427 -2.669,-0.577 c -7.354,-1.602 -13.744,-0.521 -19.166,1.859 -3.878,-6.993 -8.912,-11.812 -13.642,-15.114 -12.489,-9.258 -25.57,-13.079 -38.895,-11.319 -11.624,1.14 -22.194,4.21 -31.87,8.768 1.542,-2.437 3.056,-4.846 4.772,-7.384 3.072,-4.816 6.851,-12.085 7.456,-20.823 l 0,0.129 c 0.015,-0.072 0,-0.146 0.015,-0.216 0.058,-0.736 0.231,-1.399 0.231,-2.15 0,-0.144 0,-0.288 -0.014,-0.417 0.158,-1.472 0.389,-2.928 0.389,-4.413 0,-10.153 -3.678,-20.334 -10.803,-29.81 l -0.807,-1.066 -0.981,-0.938 c -3.706,-3.548 -7.412,-6.202 -11.12,-8.869 2.309,-4.27 3.896,-8.897 3.896,-13.975 0,-5.033 -1.154,-10.282 -3.506,-15.416 l -0.446,-1.009 -0.606,-0.952 c -3.908,-6.173 -9.922,-11.899 -17.565,-16.845 5.985,-3.923 10.686,-8.74 14.305,-12.908 l 2.006,-2.336 0.979,-2.033 c 4.442,-9.389 6.663,-17.926 6.663,-25.569 0,-2.928 -0.621,-5.61 -1.284,-8.278 12.099,-8.062 20.117,-19.021 21.906,-31.64 1.456,-6.605 2.09,-13.311 2.09,-19.612 0,-7.053 -0.677,-13.586 -1.484,-18.907 -0.837,-5.062 -2.278,-10.065 -4.067,-15.1 1.414,-1.975 1.587,-2.234 3.158,-4.47 6.98,5.624 20.912,14.696 39.314,9.258 l 0.691,-0.23 c 5.278,-1.817 9.62,-5.177 13.455,-9.128 3.846,3.254 8.976,6.293 15.793,6.689 -0.164,-0.012 -0.325,-0.018 -0.493,-0.042 0,0 0.793,0.044 1.528,0.088 -0.351,-0.006 -0.693,-0.026 -1.036,-0.045 0.414,0.03 0.821,0.042 1.224,0.074 0.173,0 0.304,0.029 0.447,0.029 10.889,0.605 19.124,-5.148 24.156,-8.726 l 2.899,-1.99 1.326,-0.88 0.634,-0.548 c 7.109,-6.028 12.648,-13.166 16.774,-21.026 3.012,6.432 6.286,12.936 11.419,19.354 l 1.099,1.399 2.089,2.033 c 4.082,4.067 13.528,13.209 27.156,10.196 0.647,-0.087 1.255,-0.404 1.903,-0.534 1.976,3.866 4.674,7.586 8.868,10.859 10.125,7.428 22.859,11.638 38.953,12.879 l 1.054,0.071 1.053,-0.057 c 10.035,-0.506 19.902,-3.548 29.245,-8.552 -3.315,7.888 -6.359,16.498 -7.484,25.857 l -0.172,1.399 0.071,1.414 c 0.635,12.345 3.605,22.324 9.1,30.501 l 0.62,0.922 0.736,0.837 c 6.1,6.893 13.757,11.926 22.642,15.099 0.1,0.043 0.216,0.073 0.316,0.116 -0.015,0 -0.015,0.015 -0.015,0.029 0.086,0.03 0.174,0.101 0.274,0.129 0,0 -0.216,-0.087 -0.288,-0.115 -4.514,4.989 -8.351,10.989 -11.276,18.819 l -0.737,1.948 -0.217,2.047 c -0.187,1.615 -0.417,3.706 -0.417,6.072 0,3.316 0.895,7.167 2.566,11.045 1.716,5.48 5.062,9.807 9.273,12.865 -0.043,0.043 -4.428,4.413 -4.428,4.413 -5.494,5.264 -13.037,12.46 -15.415,23.535 l -0.392,1.773 0.029,1.816 c 0.015,2.785 0.447,5.51 1.196,8.15 -3.704,5.939 -5.363,11.723 -6.372,16.627 l -0.158,0.777 -0.089,0.794 c -0.345,3.217 -0.519,6.433 -0.519,9.648 0.01,5.49 0.69,11.06 1.71,16.67 z m 19.07,55.9 c 0.231,0.187 0.463,0.302 0.692,0.49 0.087,0.058 0.145,0.159 0.245,0.216 l -0.94,-0.71 z"
         id="path47" /></g></g>
</g></symbol><symbol id='missed'><g transform='scale(40, 40)'><g>
<circle
     r="0.048828125"
     cy="0.5000003"
     cx="0.50000066"
     id="path3430"
     style="opacity:1;fill:#001560;fill-opacity:1;stroke:none;stroke-width:0.60000002;stroke-miterlimit:4;stroke-dasharray:none;stroke-opacity:1" /><circle
     r="0.12899339"
     cy="0.5000003"
     cx="0.50000066"
     id="path3430-2"
     style="opacity:0.8;fill:none;fill-opacity:1;stroke:#001560;stroke-width:0.03802942;stroke-miterlimit:4;stroke-dasharray:none;stroke-opacity:1" /><circle
     r="0.24814779"
     cy="0.5000003"
     cx="0.50000066"
     id="path3430-2-7"
     style="opacity:0.65;fill:none;fill-opacity:1;stroke:#001560;stroke-width:0.043;stroke-miterlimit:4;stroke-dasharray:none;stroke-opacity:1" /><circle
     r="0.40272379"
     cy="0.5000003"
     cx="0.50000066"
     id="path3430-2-7-4"
     style="opacity:0.5;fill:none;fill-opacity:1;stroke:#001560;stroke-width:0.06978552;stroke-miterlimit:4;stroke-dasharray:none;stroke-opacity:1" />
     </g>
</g></symbol></defs><text x='220' y='25' transform='translate(0, 12) ' alignment-baseline='central' fill='' text-anchor='middle' font-size='25'>Anonymous</text>
<text x='680' y='25' transform='translate(0, 12) ' alignment-baseline='central' fill='' text-anchor='middle' font-size='25'>Jarvis</text>
<g transform='translate(0, 50)'>
<g>
<rect x='0' y='0' width='440' height='440' style='fill:rgb(255,255,255);stroke-width:2;stroke:rgb(0,0,0)' />
<line x1='40' y1='0' x2='40' y2='440' style='stroke:rgb(0,0,0);stroke-width:4' />
<line x1='0' y1='40' x2='440' y2='40' style='stroke:rgb(0,0,0);stroke-width:4' />
<line x1='80' y1='0' x2='80' y2='440' style='stroke:rgb(0,0,0);stroke-width:2' />
<line x1='120' y1='0' x2='120' y2='440' style='stroke:rgb(0,0,0);stroke-width:2' />
<line x1='160' y1='0' x2='160' y2='440' style='stroke:rgb(0,0,0);stroke-width:2' />
<line x1='200' y1='0' x2='200' y2='440' style='stroke:rgb(0,0,0);stroke-width:2' />
<line x1='240' y1='0' x2='240' y2='440' style='stroke:rgb(0,0,0);stroke-width:2' />
<line x1='280' y1='0' x2='280' y2='440' style='stroke:rgb(0,0,0);stroke-width:2' />
<line x1='320' y1='0' x2='320' y2='440' style='stroke:rgb(0,0,0);stroke-width:2' />
<line x1='360' y1='0' x2='360' y2='440' style='stroke:rgb(0,0,0);stroke-width:2' />
<line x1='400' y1='0' x2='400' y2='440' style='stroke:rgb(0,0,0);stroke-width:2' />
<line x1='0' y1='80' x2='440' y2='80' style='stroke:rgb(0,0,0);stroke-width:2' />
<line x1='0' y1='120' x2='440' y2='120' style='stroke:rgb(0,0,0);stroke-width:2' />
<line x1='0' y1='160' x2='440' y2='160' style='stroke:rgb(0,0,0);stroke-width:2' />
<line x1='0' y1='200' x2='440' y2='200' style='stroke:rgb(0,0,0);stroke-width:2' />
<line x1='0' y1='240' x2='440' y2='240' style='stroke:rgb(0,0,0);stroke-width:2' />
<line x1='0' y1='280' x2='440' y2='280' style='stroke:rgb(0,0,0);stroke-width:2' />
<line x1='0' y1='320' x2='440' y2='320' style='stroke:rgb(0,0,0);stroke-width:2' />
<line x1='0' y1='360' x2='440' y2='360' style='stroke:rgb(0,0,0);stroke-width:2' />
<line x1='0' y1='400' x2='440' y2='400' style='stroke:rgb(0,0,0);stroke-width:2' />
<text x='60' y='20' transform='translate(0, 10) ' alignment-baseline='central' fill='' text-anchor='middle' font-size='20'>0</text>
<text x='100' y='20' transform='translate(0, 10) ' alignment-baseline='central' fill='' text-anchor='middle' font-size='20'>1</text>
<text x='140' y='20' transform='translate(0, 10) ' alignment-baseline='central' fill='' text-anchor='middle' font-size='20'>2</text>
<text x='180' y='20' transform='translate(0, 10) ' alignment-baseline='central' fill='' text-anchor='middle' font-size='20'>3</text>
<text x='220' y='20' transform='translate(0, 10) ' alignment-baseline='central' fill='' text-anchor='middle' font-size='20'>4</text>
<text x='260' y='20' transform='translate(0, 10) ' alignment-baseline='central' fill='' text-anchor='middle' font-size='20'>5</text>
<text x='300' y='20' transform='translate(0, 10) ' alignment-baseline='central' fill='' text-anchor='middle' font-size='20'>6</text>
<text x='340' y='20' transform='translate(0, 10) ' alignment-baseline='central' fill='' text-anchor='middle' font-size='20'>7</text>
<text x='380' y='20' transform='translate(0, 10) ' alignment-baseline='central' fill='' text-anchor='middle' font-size='20'>8</text>
<text x='420' y='20' transform='translate(0, 10) ' alignment-baseline='central' fill='' text-anchor='middle' font-size='20'>9</text>
<text x='20' y='60' transform='translate(0, 10) ' alignment-baseline='central' fill='' text-anchor='middle' font-size='20'>0</text>
<text x='20' y='100' transform='translate(0, 10) ' alignment-baseline='central' fill='' text-anchor='middle' font-size='20'>1</text>
<text x='20' y='140' transform='translate(0, 10) ' alignment-baseline='central' fill='' text-anchor='middle' font-size='20'>2</text>
<text x='20' y='180' transform='translate(0, 10) ' alignment-baseline='central' fill='' text-anchor='middle' font-size='20'>3</text>
<text x='20' y='220' transform='translate(0, 10) ' alignment-baseline='central' fill='' text-anchor='middle' font-size='20'>4</text>
<text x='20' y='260' transform='translate(0, 10) ' alignment-baseline='central' fill='' text-anchor='middle' font-size='20'>5</text>
<text x='20' y='300' transform='translate(0, 10) ' alignment-baseline='central' fill='' text-anchor='middle' font-size='20'>6</text>
<text x='20' y='340' transform='translate(0, 10) ' alignment-baseline='central' fill='' text-anchor='middle' font-size='20'>7</text>
<text x='20' y='380' transform='translate(0, 10) ' alignment-baseline='central' fill='' text-anchor='middle' font-size='20'>8</text>
<text x='20' y='420' transform='translate(0, 10) ' alignment-baseline='central' fill='' text-anchor='middle' font-size='20'>9</text>
</g>
<rect x='280' y='120' width='40' height='160' style='fill:rgb(0, 0, 0);fill-opacity:0.5;' />
<text x='300' y='200' transform='translate(0, 10) rotate(-90, 300, 200)' alignment-baseline='central' fill='' text-anchor='middle' font-size='20'>Hermione</text>
<rect x='40' y='40' width='120' height='40' style='fill:rgb(0, 0, 0);fill-opacity:0.5;' />
<text x='80' y='60' transform='translate(0, 10) ' alignment-baseline='central' fill='' text-anchor='middle' font-size='20'>K-19</text>
<rect x='40' y='120' width='40' height='80' style='fill:rgb(0, 0, 0);fill-opacity:0.5;' />
<text x='60' y='160' transform='translate(0, 10) rotate(-90, 60, 160)' alignment-baseline='central' fill='' text-anchor='middle' font-size='20'>Titanic</text>
<rect x='120' y='120' width='40' height='120' style='fill:rgb(0, 0, 0);fill-opacity:0.5;' />
<text x='140' y='160' transform='translate(0, 10) rotate(-90, 140, 160)' alignment-baseline='central' fill='' text-anchor='middle' font-size='20'>Belem</text>
<rect x='200' y='120' width='40' height='200' style='fill:rgb(0, 0, 0);fill-opacity:0.5;' />
<text x='220' y='200' transform='translate(0, 10) rotate(-90, 220, 200)' alignment-baseline='central' fill='' text-anchor='middle' font-size='20'>Charles de Gaulle</text>
<use xlink:href='#missed' x='240' y='360'/><use xlink:href='#missed' x='200' y='360'/><use xlink:href='#missed' x='240' y='400'/><use xlink:href='#missed' x='280' y='360'/><use xlink:href='#missed' x='400' y='120'/><use xlink:href='#missed' x='360' y='160'/><use xlink:href='#missed' x='400' y='200'/><use xlink:href='#missed' x='440' y='160'/><use xlink:href='#missed' x='80' y='160'/><use xlink:href='#missed' x='40' y='200'/></g><g transform='translate(460, 50)'>
<g>
<rect x='0' y='0' width='440' height='440' style='fill:rgb(255,255,255);stroke-width:2;stroke:rgb(0,0,0)' />
<line x1='40' y1='0' x2='40' y2='440' style='stroke:rgb(0,0,0);stroke-width:4' />
<line x1='0' y1='40' x2='440' y2='40' style='stroke:rgb(0,0,0);stroke-width:4' />
<line x1='80' y1='0' x2='80' y2='440' style='stroke:rgb(0,0,0);stroke-width:2' />
<line x1='120' y1='0' x2='120' y2='440' style='stroke:rgb(0,0,0);stroke-width:2' />
<line x1='160' y1='0' x2='160' y2='440' style='stroke:rgb(0,0,0);stroke-width:2' />
<line x1='200' y1='0' x2='200' y2='440' style='stroke:rgb(0,0,0);stroke-width:2' />
<line x1='240' y1='0' x2='240' y2='440' style='stroke:rgb(0,0,0);stroke-width:2' />
<line x1='280' y1='0' x2='280' y2='440' style='stroke:rgb(0,0,0);stroke-width:2' />
<line x1='320' y1='0' x2='320' y2='440' style='stroke:rgb(0,0,0);stroke-width:2' />
<line x1='360' y1='0' x2='360' y2='440' style='stroke:rgb(0,0,0);stroke-width:2' />
<line x1='400' y1='0' x2='400' y2='440' style='stroke:rgb(0,0,0);stroke-width:2' />
<line x1='0' y1='80' x2='440' y2='80' style='stroke:rgb(0,0,0);stroke-width:2' />
<line x1='0' y1='120' x2='440' y2='120' style='stroke:rgb(0,0,0);stroke-width:2' />
<line x1='0' y1='160' x2='440' y2='160' style='stroke:rgb(0,0,0);stroke-width:2' />
<line x1='0' y1='200' x2='440' y2='200' style='stroke:rgb(0,0,0);stroke-width:2' />
<line x1='0' y1='240' x2='440' y2='240' style='stroke:rgb(0,0,0);stroke-width:2' />
<line x1='0' y1='280' x2='440' y2='280' style='stroke:rgb(0,0,0);stroke-width:2' />
<line x1='0' y1='320' x2='440' y2='320' style='stroke:rgb(0,0,0);stroke-width:2' />
<line x1='0' y1='360' x2='440' y2='360' style='stroke:rgb(0,0,0);stroke-width:2' />
<line x1='0' y1='400' x2='440' y2='400' style='stroke:rgb(0,0,0);stroke-width:2' />
<text x='60' y='20' transform='translate(0, 10) ' alignment-baseline='central' fill='' text-anchor='middle' font-size='20'>0</text>
<text x='100' y='20' transform='translate(0, 10) ' alignment-baseline='central' fill='' text-anchor='middle' font-size='20'>1</text>
<text x='140' y='20' transform='translate(0, 10) ' alignment-baseline='central' fill='' text-anchor='middle' font-size='20'>2</text>
<text x='180' y='20' transform='translate(0, 10) ' alignment-baseline='central' fill='' text-anchor='middle' font-size='20'>3</text>
<text x='220' y='20' transform='translate(0, 10) ' alignment-baseline='central' fill='' text-anchor='middle' font-size='20'>4</text>
<text x='260' y='20' transform='translate(0, 10) ' alignment-baseline='central' fill='' text-anchor='middle' font-size='20'>5</text>
<text x='300' y='20' transform='translate(0, 10) ' alignment-baseline='central' fill='' text-anchor='middle' font-size='20'>6</text>
<text x='340' y='20' transform='translate(0, 10) ' alignment-baseline='central' fill='' text-anchor='middle' font-size='20'>7</text>
<text x='380' y='20' transform='translate(0, 10) ' alignment-baseline='central' fill='' text-anchor='middle' font-size='20'>8</text>
<text x='420' y='20' transform='translate(0, 10) ' alignment-baseline='central' fill='' text-anchor='middle' font-size='20'>9</text>
<text x='20' y='60' transform='translate(0, 10) ' alignment-baseline='central' fill='' text-anchor='middle' font-size='20'>0</text>
<text x='20' y='100' transform='translate(0, 10) ' alignment-baseline='central' fill='' text-anchor='middle' font-size='20'>1</text>
<text x='20' y='140' transform='translate(0, 10) ' alignment-baseline='central' fill='' text-anchor='middle' font-size='20'>2</text>
<text x='20' y='180' transform='translate(0, 10) ' alignment-baseline='central' fill='' text-anchor='middle' font-size='20'>3</text>
<text x='20' y='220' transform='translate(0, 10) ' alignment-baseline='central' fill='' text-anchor='middle' font-size='20'>4</text>
<text x='20' y='260' transform='translate(0, 10) ' alignment-baseline='central' fill='' text-anchor='middle' font-size='20'>5</text>
<text x='20' y='300' transform='translate(0, 10) ' alignment-baseline='central' fill='' text-anchor='middle' font-size='20'>6</text>
<text x='20' y='340' transform='translate(0, 10) ' alignment-baseline='central' fill='' text-anchor='middle' font-size='20'>7</text>
<text x='20' y='380' transform='translate(0, 10) ' alignment-baseline='central' fill='' text-anchor='middle' font-size='20'>8</text>
<text x='20' y='420' transform='translate(0, 10) ' alignment-baseline='central' fill='' text-anchor='middle' font-size='20'>9</text>
</g>
<rect x='160' y='240' width='40' height='160' style='fill:rgb(0, 0, 0);fill-opacity:0.5;' />
<text x='180' y='320' transform='translate(0, 10) rotate(-90, 180, 320)' alignment-baseline='central' fill='' text-anchor='middle' font-size='20'>O'Neill</text>
<rect x='240' y='240' width='120' height='40' style='fill:rgb(0, 0, 0);fill-opacity:0.5;' />
<text x='280' y='260' transform='translate(0, 10) ' alignment-baseline='central' fill='' text-anchor='middle' font-size='20'>Tardis</text>
<use xlink:href='#fire' x='280' y='240'/><rect x='160' y='160' width='80' height='40' style='fill:rgb(0, 0, 0);fill-opacity:0.5;' />
<text x='200' y='180' transform='translate(0, 10) ' alignment-baseline='central' fill='' text-anchor='middle' font-size='20'>Millennium Falcon</text>
<use xlink:href='#fire' x='160' y='160'/><rect x='240' y='200' width='120' height='40' style='fill:rgb(0, 0, 0);fill-opacity:0.5;' />
<text x='280' y='220' transform='translate(0, 10) ' alignment-baseline='central' fill='' text-anchor='middle' font-size='20'>Planet Express</text>
<rect x='200' y='240' width='40' height='200' style='fill:rgb(0, 0, 0);fill-opacity:0.5;' />
<text x='220' y='320' transform='translate(0, 10) rotate(-90, 220, 320)' alignment-baseline='central' fill='' text-anchor='middle' font-size='20'>Star Destroyer</text>
<use xlink:href='#missed' x='280' y='320'/><use xlink:href='#missed' x='360' y='400'/><use xlink:href='#missed' x='160' y='120'/><use xlink:href='#missed' x='80' y='80'/><use xlink:href='#missed' x='360' y='320'/><use xlink:href='#missed' x='200' y='200'/><use xlink:href='#missed' x='240' y='280'/><use xlink:href='#missed' x='120' y='80'/></g></svg>